<svg width="1000.0000000000001" height="1000.0000000000001" xmlns="http://www.w3.org/2000/svg">
 <metadata>Svg Vector Icons : http://www.onlinewebfonts.com/icon</metadata>

 <g>
  <title>background</title>
  <rect fill="none" id="canvas_background" height="34" width="34" y="-1" x="-1"/>
 </g>
 <g>
  <title>Layer 1</title>
  <g id="svg_1">
   <g id="svg_2" transform="translate(0,360) scale(0.10000000149011612,-0.10000000149011612) ">
    <path fill="#ffffff" id="svg_3" d="m3727.628572,2046.2c-115.5,-28.9 -234.9,-100.1 -319.6,-190.6c-46.2,-50.1 -194.5,-273.4 -329.2,-498.7l-246.5,-408.2l-1139.8,-5.7c-1130.1,-5.8 -1139.8,-5.8 -1232.2,-48.2c-121.3,-57.7 -275.3,-204.1 -336.9,-323.4l-52,-96.3l0,-2435.6l0,-2435.5l52,-96.3c67.4,-130.9 186.8,-246.4 319.6,-311.9l109.8,-53.9l4418.6,0l4418.7,0l105.9,52c130.9,63.5 258,186.8 325.4,313.8l50,96.3l0,2435.6l0,2435.5l-52,96.3c-61.6,119.4 -215.6,265.7 -336.9,323.5c-92.4,42.4 -102,42.4 -1232.2,48.1l-1139.9,5.7l-246.4,408.2c-271.5,452.5 -362,564.1 -523.7,643.1l-107.8,53.9l-1222.6,3.9c-671.9,1.9 -1249.5,-3.9 -1282.3,-11.6zm2427.9,-456.3c53.9,-25 113.6,-113.6 358.1,-519.8c161.7,-269.6 313.8,-508.4 340.8,-529.5c46.2,-34.7 88.6,-36.6 1220.7,-36.6c1047.4,0 1182.1,-3.9 1239.9,-30.8c130.9,-61.6 123.2,96.3 123.2,-2433.6c0,-2529.9 7.7,-2372 -123.2,-2433.6c-59.7,-28.9 -423.6,-30.8 -4341.6,-30.8c-3652.4,0 -4287.7,3.9 -4343.6,27c-132.8,55.8 -125.1,-105.9 -125.1,2437.5c0,2529.9 -7.7,2372 123.2,2433.6c57.7,26.8 192.5,30.7 1239.8,30.7c1132.1,0 1174.5,1.9 1220.7,36.6c27,21.2 179.1,258 340.8,529.5c234.9,392.8 306.1,494.8 354.3,519.8c53.9,26.9 206,30.8 1184.1,30.8c983.8,0 1132,-3.9 1187.9,-30.8z"/>
    <path fill="#ffffff" id="svg_4" d="m4701.828572,482.8c-448.6,-52 -920.3,-275.3 -1261.1,-596.9c-1137.9,-1076.3 -851,-2940 556.4,-3627.4c369.7,-181 758.6,-254.1 1172.5,-217.6c870.3,73.2 1640.4,677.7 1917.7,1507.5c450.5,1351.6 -458.2,2776.4 -1871.4,2934.2c-207.9,23.3 -306.1,23.3 -514.1,0.2zm631.6,-471.7c327.3,-67.4 625.7,-227.2 876,-467.9c246.4,-236.8 415.9,-529.5 498.7,-860.6c59.7,-240.7 59.7,-602.6 0,-841.4c-171.4,-689.3 -737.4,-1216.8 -1436.3,-1340c-148.2,-27 -452.5,-27 -600.7,0c-700.8,123.2 -1263,648.8 -1436.3,1340c-61.6,242.6 -59.7,621.9 1.9,852.9c80.9,308.1 223.3,566.1 433.2,787.5c269.5,281.1 569.9,452.5 935.7,529.5c173.3,38.5 544.9,38.5 727.8,0z"/>
    <path fill="#ffffff" id="svg_5" d="m4740.428572,-414.4c-98.2,-15.4 -302.3,-88.6 -404.3,-142.5c-406.3,-215.6 -693.1,-679.6 -700.8,-1130.2c-1.9,-140.5 -1.9,-142.5 69.3,-207.9c78.9,-71.2 159.8,-84.7 244.5,-40.4c84.7,42.4 117.4,111.7 136.7,281.1c30.8,267.6 148.3,479.4 352.3,629.6c140.6,104 281.1,157.9 477.5,179.1c169.4,19.3 215.6,46.2 261.9,152.1c40.4,96.3 -3.8,219.5 -94.4,265.7c-48.2,24.9 -229.1,32.6 -342.7,13.4z"/>
    <path fill="#ffffff" id="svg_6" d="m7605.328572,38c-34.6,-5.8 -86.6,-38.5 -115.5,-71.2c-53.9,-59.7 -53.9,-61.6 -53.9,-350.4c0,-321.5 15.4,-379.3 115.5,-431.3c82.8,-42.4 1245.7,-42.4 1328.5,0c98.2,52 115.5,111.7 115.5,417.8c0,294.6 -11.5,340.8 -96.3,404.3c-44.3,32.7 -96.3,36.6 -639.2,40.4c-325.4,2 -620,-1.8 -654.6,-9.6z"/>
   </g>
  </g>
 </g>
</svg>